<?xml version="1.0" encoding="UTF-8" standalone="no"?>
<!-- Generator: Adobe Illustrator 16.0.0, SVG Export Plug-In . SVG Version: 6.00 Build 0)  -->

<svg
   xmlns:dc="http://purl.org/dc/elements/1.1/"
   xmlns:cc="http://creativecommons.org/ns#"
   xmlns:rdf="http://www.w3.org/1999/02/22-rdf-syntax-ns#"
   xmlns:svg="http://www.w3.org/2000/svg"
   xmlns="http://www.w3.org/2000/svg"
   xmlns:sodipodi="http://sodipodi.sourceforge.net/DTD/sodipodi-0.dtd"
   xmlns:inkscape="http://www.inkscape.org/namespaces/inkscape"
   version="1.1"
   id="Layer_1"
   x="0px"
   y="0px"
   width="512px"
   height="512px"
   viewBox="0 0 512 512"
   enable-background="new 0 0 512 512"
   xml:space="preserve"
   inkscape:version="0.91 r13725"
   sodipodi:docname="project1.svg"
   inkscape:export-filename="/Users/cm134555/Sites/portfolio/app/assets/img/project1.png"
   inkscape:export-xdpi="20.590406"
   inkscape:export-ydpi="20.590406"><metadata
     id="metadata9"><rdf:RDF><cc:Work
         rdf:about=""><dc:format>image/svg+xml</dc:format><dc:type
           rdf:resource="http://purl.org/dc/dcmitype/StillImage" /></cc:Work></rdf:RDF></metadata><defs
     id="defs7" /><sodipodi:namedview
     pagecolor="#ffffff"
     bordercolor="#666666"
     borderopacity="1"
     objecttolerance="10"
     gridtolerance="10"
     guidetolerance="10"
     inkscape:pageopacity="0"
     inkscape:pageshadow="2"
     inkscape:window-width="1210"
     inkscape:window-height="913"
     id="namedview5"
     showgrid="false"
     inkscape:zoom="0.91595919"
     inkscape:cx="352.06727"
     inkscape:cy="216.30277"
     inkscape:window-x="68"
     inkscape:window-y="4"
     inkscape:window-maximized="0"
     inkscape:current-layer="Layer_1" /><path
     d="m 371.2,227.2 0,-86.4 C 371.2,77.2942 319.5346,25.6 256,25.6 192.4798,25.6 140.8,77.2942 140.8,140.8 l 0,86.4 c -31.8096,0 -57.6,25.7904 -57.6,57.6 l 0,144 c 0,31.8096 25.7904,57.6 57.6,57.6 l 230.4,0 c 31.8096,0 57.6,-25.7904 57.6,-57.6 l 0,-144 c 0,-31.8096 -25.7904,-57.6 -57.6,-57.6 z m -100.8,139.5846 0,47.6154 c 0,7.9596 -6.4404,14.4 -14.4,14.4 -7.9596,0 -14.4,-6.4404 -14.4,-14.4 l 0,-47.6154 c -8.4519,-5.0067 -14.4,-13.8375 -14.4,-24.3846 0,-15.9192 12.8952,-28.8 28.8,-28.8 15.9048,0 28.8,12.8817 28.8,28.8 0,10.5471 -5.9481,19.3779 -14.4,24.3846 z M 313.6,227.2 l -115.2,0 0,-86.4 c 0,-31.7817 25.8327,-57.6 57.6,-57.6 31.7529,0 57.6,25.8192 57.6,57.6 l 0,86.4 z"
     id="path3"
     style="fill:none;stroke:#333333;stroke-width:25;stroke-miterlimit:4;stroke-dasharray:none"
     inkscape:export-xdpi="26.84"
     inkscape:export-ydpi="26.84"
     inkscape:connector-curvature="0" /></svg>