<?xml version="1.0" encoding="utf-8"?>
<!-- Svg Vector Icons : http://www.onlinewebfonts.com/icon -->
<!DOCTYPE svg PUBLIC "-//W3C//DTD SVG 1.1//EN" "http://www.w3.org/Graphics/SVG/1.1/DTD/svg11.dtd">
<svg version="1.1" xmlns="http://www.w3.org/2000/svg" xmlns:xlink="http://www.w3.org/1999/xlink" x="0px" y="0px" viewBox="0 0 1000 1000" enable-background="new 0 0 1000 1000" xml:space="preserve">
<metadata> Svg Vector Icons : http://www.onlinewebfonts.com/icon </metadata>
<g><path d="M663.3,254.9c27.1,0,49,21.9,49,49c0,12.8-4.9,24.4-12.9,33.1c-20.1-26.1-25.7-49.8-72.9-65.5C635.6,261.3,648.7,254.9,663.3,254.9z"/><path d="M745,891.9c0-137.8-107.9-261.3-245-261.3c-137,0-228.7,123.5-228.7,261.3c-12.9,0.6-31.2-0.4-49,0c0-158.5,120.1-310.3,277.7-310.3c157.6,0,294,151.8,294,310.3C778.2,892.8,759.8,890.9,745,891.9z M28.4,797.7c-10.2,0-18.4-8.4-18.4-18.9c0-127.6,81.2-236.2,193.6-274.4c-59.4-32.6-95.6-94.1-95.6-167.8c0-106.6,75.5-196,179.7-196c57.2,0,115.6,26.1,151.7,71.6c6.4,8.1,5.2,20-2.7,26.5c-7.9,6.6-19.5,5.3-25.9-2.8c-29-36.6-77-62.7-123.1-62.7c-83.9,0-147.2,74.9-147.2,160.7c0,85.8,63.3,149.7,147.2,149.7c-0.5,18.4-0.5,32.7,0,49c-135.5,0-240.8,107.7-240.8,246.3C46.9,789.2,38.6,797.7,28.4,797.7L28.4,797.7z M745,581.5v-98h-16.3v-49H794v65.3l65.3-65.3h65.3l16.3-16.3l0-245l-16.3-16.3H549l-16.3,16.3v49l-49,16.3v-98c0-10.3,25.3-32.7,35.5-32.7h438.2c10.2,0,32.7,22.4,32.7,32.7v310.3c0,10.3-22.5,32.7-32.7,32.7h-81.7l-98,98H745z"/><path d="M826.7,254.9c27.1,0,49,21.9,49,49c0,27.1-21.9,49-49,49c-27.1,0-49-21.9-49-49S799.6,254.9,826.7,254.9z"/><path d="M508.2,254.9C611.9,254.9,696,339,696,442.7s-84.1,187.8-187.8,187.8c-103.7,0-187.8-84.1-187.8-187.8S404.4,254.9,508.2,254.9z"/><path d="M508.2,303.9c76.7,0,138.8,62.2,138.8,138.8s-62.2,138.8-138.8,138.8c-76.7,0-138.8-62.2-138.8-138.8S431.5,303.9,508.2,303.9z"/></g>
</svg>