<?xml version="1.0" encoding="UTF-8" standalone="no"?>
<!-- Created with Inkscape (http://www.inkscape.org/) -->

<svg
   xmlns:dc="http://purl.org/dc/elements/1.1/"
   xmlns:cc="http://creativecommons.org/ns#"
   xmlns:rdf="http://www.w3.org/1999/02/22-rdf-syntax-ns#"
   xmlns:svg="http://www.w3.org/2000/svg"
   xmlns="http://www.w3.org/2000/svg"
   xmlns:sodipodi="http://sodipodi.sourceforge.net/DTD/sodipodi-0.dtd"
   xmlns:inkscape="http://www.inkscape.org/namespaces/inkscape"
   width="210mm"
   height="297mm"
   viewBox="0 0 744.09448819 1052.3622047"
   id="svg2"
   version="1.1"
   inkscape:version="0.91 r13725"
   sodipodi:docname="project3.svg">
  <defs
     id="defs4" />
  <sodipodi:namedview
     id="base"
     pagecolor="#ffffff"
     bordercolor="#666666"
     borderopacity="1.0"
     inkscape:pageopacity="0.0"
     inkscape:pageshadow="2"
     inkscape:zoom="1"
     inkscape:cx="304.28571"
     inkscape:cy="818.48064"
     inkscape:document-units="px"
     inkscape:current-layer="g4496"
     showgrid="false"
     inkscape:window-width="1637"
     inkscape:window-height="1005"
     inkscape:window-x="43"
     inkscape:window-y="1"
     inkscape:window-maximized="1" />
  <metadata
     id="metadata7">
    <rdf:RDF>
      <cc:Work
         rdf:about="">
        <dc:format>image/svg+xml</dc:format>
        <dc:type
           rdf:resource="http://purl.org/dc/dcmitype/StillImage" />
        <dc:title></dc:title>
      </cc:Work>
    </rdf:RDF>
  </metadata>
  <g
     inkscape:label="Layer 1"
     inkscape:groupmode="layer"
     id="layer1">
    <g
       id="g4455"
       transform="translate(61.142829,-29.352086)">
      <g
         id="g4403">
        <g
           id="g4405">
          <g
             id="g4407">
            <path
               id="path4409"
               d="m 97.28,269.454 0,38.533 -21.012,0 c -7.068,0 -12.8,5.731 -12.8,12.8 0,7.069 5.732,12.8 12.8,12.8 l 21.012,0 0,9.494 c 0,7.069 5.732,12.8 12.8,12.8 7.068,0 12.8,-5.731 12.8,-12.8 l 0,-10.46 c 24.818,-3.843 41.244,-18.936 41.244,-39.329 l 0,-8.174 c 0,-20.393 -16.426,-35.488 -41.244,-39.331 l 0,-38.533 21.012,0 c 7.068,0 12.8,-5.731 12.8,-12.8 0,-7.069 -5.732,-12.8 -12.8,-12.8 l -21.012,0 0,-9.494 c 0,-7.069 -5.732,-12.8 -12.8,-12.8 -7.068,0 -12.8,5.731 -12.8,12.8 l 0,10.523 c -24.517,4.027 -41.244,19.615 -41.244,40.01 l 0,7.432 c 0,20.391 16.426,35.487 41.244,39.329 z m 25.6,2.417 c 8.85,2.134 15.644,6.597 15.644,13.245 l 0,8.174 c 0,6.647 -6.794,11.11 -15.644,13.244 l 0,-34.663 z M 81.636,222.693 c 0,-6.87 6.879,-11.572 15.644,-13.853 l 0,34.528 c -8.85,-2.134 -15.644,-6.597 -15.644,-13.244 l 0,-7.431 z"
               inkscape:connector-curvature="0" />
            <path
               id="path4411"
               d="m 499.2,115.2 -486.4,0 C 5.732,115.2 0,120.931 0,128 l 0,256 c 0,7.069 5.732,12.8 12.8,12.8 l 486.4,0 c 7.068,0 12.8,-5.731 12.8,-12.8 l 0,-256 c 0,-7.069 -5.732,-12.8 -12.8,-12.8 z m -12.8,256 -460.8,0 0,-230.4 460.8,0 0,230.4 z"
               inkscape:connector-curvature="0" />
            <path
               id="path4413"
               d="m 218.24,215.68 131.84,0 c 7.068,0 12.8,-5.731 12.8,-12.8 0,-7.069 -5.732,-12.8 -12.8,-12.8 l -131.84,0 c -7.068,0 -12.8,5.731 -12.8,12.8 0,7.069 5.732,12.8 12.8,12.8 z"
               inkscape:connector-curvature="0" />
            <path
               id="path4415"
               d="m 218.24,266.88 220.16,0 c 7.068,0 12.8,-5.731 12.8,-12.8 0,-7.069 -5.732,-12.8 -12.8,-12.8 l -220.16,0 c -7.068,0 -12.8,5.731 -12.8,12.8 0,7.069 5.732,12.8 12.8,12.8 z"
               inkscape:connector-curvature="0" />
            <path
               id="path4417"
               d="m 438.4,292.48 -74.24,0 c -7.068,0 -12.8,5.731 -12.8,12.8 0,7.069 5.732,12.8 12.8,12.8 l 74.24,0 c 7.068,0 12.8,-5.731 12.8,-12.8 0,-7.069 -5.732,-12.8 -12.8,-12.8 z"
               inkscape:connector-curvature="0" />
          </g>
        </g>
      </g>
      <g
         id="g4419" />
      <g
         id="g4421" />
      <g
         id="g4423" />
      <g
         id="g4425" />
      <g
         id="g4427" />
      <g
         id="g4429" />
      <g
         id="g4431" />
      <g
         id="g4433" />
      <g
         id="g4435" />
      <g
         id="g4437" />
      <g
         id="g4439" />
      <g
         id="g4441" />
      <g
         id="g4443" />
      <g
         id="g4445" />
      <g
         id="g4447" />
    </g>
    <g
       transform="matrix(0.25786743,0,0,0.25786743,360.19756,169.8515)"
       id="g4480"
       style="fill:#ffffff;stroke:#ffffff">
      <path
         inkscape:connector-curvature="0"
         d="M 954.7,855 774.6,674.8 c -13.5,-13.5 -30.8,-20.8 -48.4,-22.5 54.3,-67.7 87,-153.5 87,-246.8 C 813.1,187.4 635.7,10 417.6,10 199.5,10 22.1,187.4 22.1,405.5 22.1,623.6 199.5,801 417.6,801 c 82.3,0 158.8,-25.3 222.1,-68.5 0.4,19.6 8,39.1 23,54.1 l 180.2,180.2 c 15.4,15.5 35.7,23.2 55.9,23.2 20.2,0 40.5,-7.7 55.9,-23.2 30.9,-30.9 30.9,-80.9 0,-111.8 z M 417.6,669.2 c -145.4,0 -263.7,-118.3 -263.7,-263.7 0,-145.4 118.3,-263.7 263.7,-263.7 145.4,0 263.7,118.3 263.7,263.7 0,145.4 -118.3,263.7 -263.7,263.7 z"
         id="path4482"
         style="fill:#ffffff;stroke:#ffffff" />
    </g>
    <g
       id="g4301"
       transform="matrix(0.23173789,0,0,0.23173789,373.26156,182.91627)">
      <path
         id="path4303"
         d="M 954.7,855 774.6,674.8 c -13.5,-13.5 -30.8,-20.8 -48.4,-22.5 54.3,-67.7 87,-153.5 87,-246.8 C 813.1,187.4 635.7,10 417.6,10 199.5,10 22.1,187.4 22.1,405.5 22.1,623.6 199.5,801 417.6,801 c 82.3,0 158.8,-25.3 222.1,-68.5 0.4,19.6 8,39.1 23,54.1 l 180.2,180.2 c 15.4,15.5 35.7,23.2 55.9,23.2 20.2,0 40.5,-7.7 55.9,-23.2 30.9,-30.9 30.9,-80.9 0,-111.8 z M 417.6,669.2 c -145.4,0 -263.7,-118.3 -263.7,-263.7 0,-145.4 118.3,-263.7 263.7,-263.7 145.4,0 263.7,118.3 263.7,263.7 0,145.4 -118.3,263.7 -263.7,263.7 z"
         inkscape:connector-curvature="0" />
    </g>
    <ellipse
       style="opacity:0;fill:#ff0000;fill-opacity:1;stroke:#ffffff;stroke-width:2;stroke-miterlimit:4;stroke-dasharray:none;stroke-opacity:1"
       id="path4486"
       cx="101.78972"
       cy="788.34515"
       rx="40.821918"
       ry="36.050526" />
    <g
       transform="matrix(0.23173789,0,0,0.23173789,86.26156,277.91627)"
       id="g4496">
      <g
         id="g4500"
         transform="translate(-116.51094,250.28277)" />
    </g>
  </g>
</svg>
