<svg width="16" height="17" viewBox="0 0 16 17" fill="none" xmlns="http://www.w3.org/2000/svg">
<path d="M15.7438 4.70849C15.825 4.62744 15.8894 4.53116 15.9334 4.42518C15.9774 4.31919 16 4.20557 16 4.09083C16 3.97609 15.9774 3.86247 15.9334 3.75648C15.8894 3.6505 15.825 3.55422 15.7438 3.47317L13.2644 0.993763C13.1833 0.912544 13.0871 0.848108 12.9811 0.804144C12.8751 0.760179 12.7615 0.737549 12.6467 0.737549C12.532 0.737549 12.4184 0.760179 12.3124 0.804144C12.2064 0.848108 12.1101 0.912544 12.0291 0.993763L8.0953 4.92752L4.68722 1.51943C4.00385 0.836063 2.89118 0.836063 2.20781 1.51943L0.543191 3.18405C-0.140178 3.86742 -0.140178 4.98009 0.543191 5.66346L3.95128 9.07154L0 13.0228V16.7375H3.71473L7.67477 12.7775L11.0829 16.1856C11.9152 17.0179 13.0366 16.7113 13.5623 16.1856L15.2269 14.521C15.9102 13.8376 15.9102 12.7249 15.2269 12.0416L11.8188 8.63349L15.7438 4.70849V4.70849ZM1.78727 4.41937L3.44313 2.75475L4.5558 3.86742L3.52198 4.91L4.7573 6.14532L5.79988 5.10274L6.85122 6.15408L5.1866 7.8187L1.78727 4.41937V4.41937ZM11.626 10.9377L10.5835 11.9802L11.8188 13.2156L12.8614 12.173L13.974 13.2857L12.3094 14.9503L8.90133 11.5422L10.5659 9.87757L11.626 10.9377V10.9377ZM2.98755 14.9853H1.75223V13.75L10.1717 5.33053L11.3106 6.46948L11.407 6.56585L2.98755 14.9853ZM11.407 4.08645L12.6423 2.85113L13.8777 4.08645L12.6423 5.32177L11.407 4.08645Z" fill="black"/>
</svg>
