<svg width="525" height="512" viewBox="0 0 525 512" fill="none" xmlns="http://www.w3.org/2000/svg">
<path d="M0 428.501L215.351 463.581V277.242H0V428.501V428.501ZM42.2832 319.458H173.134V413.895L42.2832 392.62V319.458ZM269.238 470.517L524.005 512V277.242H269.238V470.517V470.517ZM311.522 319.458H481.788V462.447L311.522 434.703V319.458V319.458ZM269.238 42.2165V234.825H524.005V0L269.238 42.2165V42.2165ZM481.788 192.609H311.588V77.9638L481.855 49.7528V192.609H481.788ZM0 234.825H215.351V49.2192L0 84.8998V234.825ZM42.2832 120.647L173.134 98.972V192.609H42.2832V120.647Z" fill="black"/>
</svg>
